<?xml version="1.0" encoding="UTF-8" standalone="no"?>
<!-- Created with Inkscape (http://www.inkscape.org/) -->

<svg
  width="512"
  height="512"
  viewBox="0 0 512 512"
  version="1.1"
  id="svg1"
  xml:space="preserve"
  xmlns:xlink="http://www.w3.org/1999/xlink"
  xmlns="http://www.w3.org/2000/svg"
  xmlns:svg="http://www.w3.org/2000/svg"
>
  <defs id="defs1" /><g id="layer1"><g
      id="g1"
      transform="translate(0,23.499998)"
      style="display: inline"
    ><use
        x="0"
        y="0"
        xlink:href="#path8"
        id="use2"
        transform="translate(0,100)"
      /><use
        x="0"
        y="0"
        xlink:href="#path8"
        id="use1"
        transform="translate(0,50)"
      /><path
        style="display: inline; fill: none; stroke: #000000; stroke-width: 15; stroke-linecap: round; stroke-dasharray: none; stroke-opacity: 1; paint-order: markers stroke fill"
        d="m 43.5,272.5 c 0,0 37.1875,15 53.124995,15 15.937505,0 37.187505,-15 53.125005,-15 15.9375,0 37.1875,15 53.125,15 15.9375,0 37.1875,-15 53.125,-15 15.9375,0 37.1875,15 53.125,15 15.9375,0 37.1875,-15 53.125,-15 21.25,0 31.875,15 53.125,15 21.25,0 53.125,-15 53.125,-15"
        id="path8"
      /></g><path
      style="display: inline; fill: none; stroke: #000000; stroke-width: 15; stroke-linecap: round; stroke-linejoin: round; stroke-miterlimit: 21.8; stroke-opacity: 1; paint-order: markers stroke fill"
      d="m 43.5,242.00168 c 84.84833,2.24419 84.10091,-118.67415 157.10759,-137.92944 54.64227,-14.411734 81.42765,22.51267 105.30393,65.7979 -25.43334,-27.47759 -85.24108,21.23626 -59.35675,58.40906 41.18206,59.14206 119.44861,-91.49674 178.778,-32.61981 -8.46631,-3.68465 -52.23886,25.0384 -26.71138,53.00325 16.68478,18.27785 43.62399,-1.71213 69.87861,-15.4562"
      id="path1"
    /></g>
</svg>
