<?xml version="1.0" encoding="UTF-8" standalone="no"?>
<!-- Created with Inkscape (http://www.inkscape.org/) -->

<svg
  width="512"
  height="512"
  viewBox="0 0 512 512"
  version="1.1"
  id="svg1"
  xml:space="preserve"
  xmlns:xlink="http://www.w3.org/1999/xlink"
  xmlns="http://www.w3.org/2000/svg"
  xmlns:svg="http://www.w3.org/2000/svg"
>
  <defs id="defs1" /><g
    id="layer1"
    style="display: inline"
  ><use
      x="0"
      y="0"
      xlink:href="#path8"
      id="use8"
      transform="translate(0,180)"
    /><use
      x="0"
      y="0"
      xlink:href="#path8"
      id="use9"
      transform="translate(0,120)"
    /><use
      x="0"
      y="0"
      xlink:href="#path8"
      id="use10"
      transform="translate(0,60)"
    /><path
      style="fill: none; stroke: #000000; stroke-width: 15; stroke-linecap: round; stroke-dasharray: none; stroke-opacity: 1; paint-order: markers stroke fill"
      d="m 43.5,158.5 c 0,0 37.1875,15 53.124995,15 15.937505,0 37.187505,-15 53.125005,-15 15.9375,0 37.1875,15 53.125,15 15.9375,0 37.1875,-15 53.125,-15 15.9375,0 37.1875,15 53.125,15 15.9375,0 37.1875,-15 53.125,-15 21.25,0 31.875,15 53.125,15 21.25,0 53.125,-15 53.125,-15"
      id="path8"
    /></g>
</svg>
