<?xml version="1.0" encoding="UTF-8" standalone="no"?>
<!-- Created with Inkscape (http://www.inkscape.org/) -->

<svg
  width="512"
  height="512"
  viewBox="0 0 512 512"
  version="1.1"
  id="svg1"
  xml:space="preserve"
  xmlns="http://www.w3.org/2000/svg"
  xmlns:svg="http://www.w3.org/2000/svg"
>
  <defs id="defs1" /><g id="layer1"><path
      id="path14"
      style="display: inline; fill: none; stroke: #000000; stroke-width: 13.5588; stroke-linecap: round; stroke-dasharray: none; stroke-opacity: 1; paint-order: markers stroke fill"
      d="m 448.62539,145.51139 -14.1759,58.78828 -15.00977,19.18403 m -10.84039,-86.31107 5.83713,39.60912 -12.50814,28.76873 m -49.61563,93.39902 10.42345,17.92345 31.68729,19.17426 14.59284,40.44789 h 15.3588 M 216.35146,331.46578 c 6.67105,-11.88273 8.2392,-23.90445 10.46287,-35.85668 m -44.61239,39.60913 c 8.7557,-7.92182 9.86754,-19.73507 10.8404,-28.76873 m -43.36156,26.2671 c 6.39305,-7.74 9.45059,-15.48 9.17263,-23.22 m 82.55375,67.41544 H 256 c 0,0 29.336,-72.12351 39.60911,-97.57031 2.77547,-6.87492 21.68078,2.5297 21.68078,2.5297 m -55.28761,20.12517 c -29.95662,-22.89487 -61.58963,-62.0803 -91.30164,-96.21241 m 106.14625,69.81188 c -8.18941,-7.79843 -93.95243,-92.04025 -98.76374,-87.78028 -14.20741,12.57937 -86.015705,188.26237 -86.015705,188.26237 H 75.048857 M 343.57111,221.9311 c -33.86231,-0.4871 -81.78898,17.45658 -114.25581,25.31394 -46.62193,11.28307 -171.533968,4.78293 -164.272716,44.6117 10.074599,55.26029 128.506856,46.76472 188.456466,40.44364 40.13643,-4.23198 86.41028,-26.98537 115.07434,-43.77949 2.25191,-1.31939 4.1943,-3.10533 5.83557,-5.24054 -9.05518,-20.68063 -11.22719,-40.93628 -6.02433,-55.49561 -1.24071,-0.89761 -2.56938,-1.6456 -3.98152,-2.22096 -5.95376,-2.42576 -13.01762,-3.52027 -20.832,-3.63268 z m -200.56135,83.26758 c 36.4126,0.83388 59.62216,-1.52877 83.80457,-9.58958 m 152.1824,-2.91856 C 358.60598,254.7851 361.0672,215.621 389.42018,207.63517 406.70971,202.76544 422.53295,229.8934 414.8534,256 c -5.22238,17.75348 -27.38295,52.44279 -35.85667,36.69054 z M 316.87295,230.9837 c 0,0 8.39046,40.83233 24.18241,50.88632 7.50311,4.77688 27.51791,-3.3355 27.51791,-3.3355"
      transform="matrix(1.1071647,0,0,1.1054154,-28.208165,-28.138556)"
    /><path
      style="fill: #000000; fill-opacity: 1; stroke: none; stroke-width: 15; stroke-linecap: round; stroke-linejoin: round; stroke-miterlimit: 21.8; paint-order: markers stroke fill"
      id="rect1"
      width="15"
      height="15"
      x="395.6481"
      y="234.08688"
      d="m 403.1481,234.08688 a 7.5,7.5 45 0 1 7.5,7.5 7.5,7.5 135 0 1 -7.5,7.5 7.5,7.5 45 0 1 -7.5,-7.5 7.5,7.5 135 0 1 7.5,-7.5 z"
      transform="translate(0.20846908,-1.2508143)"
    /></g>
</svg>
