<?xml version="1.0" encoding="UTF-8" standalone="no"?>
<!-- Created with Inkscape (http://www.inkscape.org/) -->

<svg
  width="512"
  height="512"
  viewBox="0 0 512 512"
  version="1.1"
  id="svg1"
  xml:space="preserve"
  xmlns="http://www.w3.org/2000/svg"
  xmlns:svg="http://www.w3.org/2000/svg"
>
  <defs id="defs1" /><g id="layer1"><g id="g27"><path
        style="fill: none; fill-opacity: 0; stroke: #000000; stroke-width: 15; stroke-linecap: round; stroke-dasharray: none; stroke-opacity: 1"
        d="m 124.5,349.71013 v 58.70968"
        id="path27"
      /><path
        style="fill: none; fill-opacity: 0; stroke: #000000; stroke-width: 15; stroke-linecap: round; stroke-dasharray: none; stroke-opacity: 1"
        d="M 391.5,410.29032 V 469"
        id="path27-92"
      /></g><path
      style="display: inline; fill: none; stroke: #000000; stroke-width: 15; stroke-linecap: round; stroke-dasharray: none; stroke-opacity: 1"
      d="M 100.91907,275.85472 C 57.382214,276.04761 45.619865,237.13341 44.008517,209.8569 41.901861,174.19594 64.14573,152.61149 102.8374,145.2784 c 11.19467,-74.822725 52.05831,-90.621246 66.50223,-95.803269 45.45202,-16.306749 83.55409,2.365514 113.82111,54.643339 25.79093,-36.428887 54.30852,-44.153399 87.60389,-26.966838 21.75886,11.231589 35.3826,34.063368 39.00611,72.384698 28.55994,-4.25793 60.30638,24.10014 59.14862,65.64299 -0.76113,27.31106 -14.03806,59.10722 -47.63861,59.25609 z"
      id="path1"
    /><path
      id="path3"
      style="fill: none; stroke: #000000; stroke-width: 15; stroke-linecap: butt; paint-order: markers stroke fill"
      d="M 288.26953 275.02539 L 220.4082 275.32617 L 183.68359 322.01758 L 238.41406 339.52148 L 205.45508 451.21289 L 330.23828 332.27148 L 278.13477 305.09961 L 288.26953 275.02539 z "
    /></g>
</svg>
