<?xml version="1.0" encoding="UTF-8" standalone="no"?>
<!-- Created with Inkscape (http://www.inkscape.org/) -->

<svg
  width="512"
  height="512"
  viewBox="0 0 512 512"
  version="1.1"
  id="svg1"
  xml:space="preserve"
  xmlns:xlink="http://www.w3.org/1999/xlink"
  xmlns="http://www.w3.org/2000/svg"
  xmlns:svg="http://www.w3.org/2000/svg"
>
  <defs id="defs1" /><g
    id="layer1"
    style="display: inline"
  ><path
      id="rect4"
      style="fill: #f8475e; fill-opacity: 1; stroke: none; stroke-width: 0; stroke-dasharray: none"
      d="M 0,0 H 512 V 512 H 0 Z"
    /><path
      style="display: inline; fill: #ffffff; fill-opacity: 1; stroke: none; stroke-width: 0; stroke-linecap: round; stroke-dasharray: none; stroke-opacity: 1"
      id="path122"
      d="m 267.87979,416.706 23.75958,41.1528 a 13.7176,13.7176 120 0 1 -11.87979,20.5764 l -47.51916,0 a 13.7176,13.7176 60.000002 0 1 -11.87979,-20.5764 l 23.75958,-41.1528 a 13.7176,13.7176 1.5352344e-6 0 1 23.75958,0 z"
      transform="matrix(0.85385293,0,0,0.87478859,37.413649,41.470346)"
    /><rect
      style="display: inline; fill: #525e77; fill-opacity: 1; stroke: none; stroke-width: 0; stroke-linecap: round; stroke-dasharray: none; stroke-opacity: 1"
      id="rect122"
      width="512"
      height="50"
      x="0"
      y="350"
    /><g
      id="g7"
      style="display: inline"
    ><path
        style="fill: #ffffff; fill-opacity: 1; stroke: none; stroke-width: 0; stroke-dasharray: none; stroke-opacity: 1"
        id="use7-2"
        width="30"
        height="50"
        x="241"
        y="272.3334"
        d="m 256,272.3334 c 8.31,0 15,6.69 15,15 v 20 c 0,8.31 -6.69,15 -15,15 -8.31,0 -15,-6.69 -15,-15 v -20 c 0,-8.31 6.69,-15 15,-15 z"
        ry="15"
        transform="translate(0,-2.3334045)"
      /><use
        x="0"
        y="0"
        xlink:href="#g112"
        transform="matrix(-1,0,0,1,512,0)"
        id="use122"
        style="stroke-width: 0; stroke-dasharray: none"
      /><g
        id="g112"
        style="display: inline"
      ><path
          style="fill: #ffffff; fill-opacity: 1; stroke: none; stroke-width: 0; stroke-dasharray: none; stroke-opacity: 1"
          id="path111"
          d="m 256,272.3334 c 8.31,0 15,6.69 15,15 v 20 c 0,8.31 -6.69,15 -15,15 -8.31,0 -15,-6.69 -15,-15 v -20 c 0,-8.31 6.69,-15 15,-15 z"
          transform="translate(110,-2.3334045)"
        /><path
          style="fill: #ffffff; fill-opacity: 1; stroke: none; stroke-width: 0; stroke-dasharray: none; stroke-opacity: 1"
          id="path112"
          d="m 256,272.3334 c 8.31,0 15,6.69 15,15 v 20 c 0,8.31 -6.69,15 -15,15 -8.31,0 -15,-6.69 -15,-15 v -20 c 0,-8.31 6.69,-15 15,-15 z"
          transform="translate(220,-2.3334045)"
        /></g></g><g
      id="g6"
      style="display: inline"
    ><rect
        style="display: inline; fill: #000000; fill-opacity: 1; stroke: none; stroke-width: 0; stroke-dasharray: none; stroke-opacity: 1"
        id="use6"
        width="30"
        height="50"
        x="-352.13251"
        y="160"
        rx="15"
        ry="15"
        transform="scale(-1,1)"
      /><rect
        style="display: inline; fill: #000000; fill-opacity: 1; stroke: none; stroke-width: 0; stroke-dasharray: none; stroke-opacity: 1"
        id="use4"
        width="30"
        height="50"
        x="155"
        y="160"
        rx="15"
        ry="15"
      /></g><path
      style="display: inline; fill: none; fill-opacity: 1; stroke: #000000; stroke-width: 20; stroke-linecap: round; stroke-linejoin: miter; stroke-miterlimit: 0; stroke-dasharray: none; stroke-opacity: 1; paint-order: normal"
      d="m 228.1905,217.57699 c 6.12509,10.22042 15.37005,14.15135 27.8095,14.15135 12.43945,0 21.68441,-3.93093 27.8095,-14.15135"
      id="path8"
    /><g id="g1"><path
        id="path6-5"
        style="display: inline; fill: #5aa02c; fill-opacity: 1; stroke: none; stroke-width: 0; stroke-dasharray: none; stroke-opacity: 1"
        d="m 256,66.420358 c -16.15933,11.773166 -34.54081,20.341536 -55,24.821266 12.5111,28.439646 34.34621,53.178736 55,53.178736 20.65379,0 42.4889,-24.73909 55,-53.178736 -20.45919,-4.47973 -38.84067,-13.0481 -55,-24.821266 z"
      /><path
        style="display: inline; fill: #71c837; fill-opacity: 1; stroke: none; stroke-width: 0; stroke-dasharray: none; stroke-opacity: 1"
        d="M 76.562997,1.8437325e-7 C 72.390978,51.092588 91.361224,84.037693 134.97121,91.966657 183.27944,100.74983 224.00111,89.922954 256,66.420364 287.99889,89.922954 328.72056,100.74983 377.02879,91.966657 420.63877,84.037693 439.60902,51.092588 435.437,1.8437325e-7"
        id="path5"
      /></g></g>
</svg>
